<svg width="24" height="24" viewBox="0 0 24 24" fill="#5C4BCD" xmlns="http://www.w3.org/2000/svg">
<path d="M22.842 17.0798L12.8385 1.45777C12.4465 0.84741 11.5535 0.84741 11.1615 1.45777L1.15796 17.0798C0.82065 17.6034 1.04552 18.307 1.62376 18.5383L11.6274 22.5699C11.8651 22.6662 12.1317 22.6662 12.3726 22.5699L22.3762 18.5383C22.9545 18.307 23.1793 17.6067 22.842 17.0798ZM12 8.62792C13.8407 8.62792 15.3313 10.1185 15.3313 11.9592C15.3313 13.7999 13.8407 15.2905 12 15.2905C10.1593 15.2905 8.66868 13.7999 8.66868 11.9592C8.66868 10.1185 10.1625 8.62792 12 8.62792ZM16.7673 18.1335C15.8035 18.564 14.2005 18.8563 12.3598 18.8916C12.3566 18.8916 12.3566 18.8916 12.3534 18.8916C12.2377 18.8948 12.1189 18.8948 12 18.8948H11.9968H11.9936C11.8747 18.8948 11.7591 18.8948 11.6402 18.8916C11.637 18.8916 11.637 18.8916 11.6338 18.8916C9.79625 18.8563 8.19003 18.564 7.22629 18.1335C5.87063 17.6195 5.02254 16.8935 5.02254 16.084C5.02254 15.1042 6.26898 14.2432 8.15469 13.7421C8.24143 13.9316 8.34101 14.1115 8.45345 14.285C6.65447 14.738 5.62649 15.4897 5.62649 16.0872C5.62649 16.3731 5.86099 16.6943 6.3011 16.9995C6.53561 16.3667 7.93303 15.8398 9.84444 15.6085C10.4741 15.9812 11.2097 16.1996 11.9936 16.1996C12.7774 16.1996 13.5099 15.9812 14.1427 15.6085C16.0541 15.8398 17.4515 16.3667 17.686 16.9995C18.1262 16.6943 18.3607 16.3731 18.3607 16.0872C18.3607 15.4897 17.3359 14.738 15.5337 14.285C15.6461 14.1115 15.7457 13.9316 15.8325 13.7421C17.7182 14.2465 18.9646 15.1074 18.9646 16.084C18.971 16.8935 18.1229 17.6195 16.7673 18.1335Z" />
</svg>
