<svg width="36" height="36" viewBox="0 0 36 36" fill="none" xmlns="http://www.w3.org/2000/svg">
<rect width="36" height="36" fill="none"/>
<path fill-rule="evenodd" clip-rule="evenodd" d="M17.083 3.52612C17.4665 2.85255 18.4374 2.85255 18.8209 3.52612L35.0527 32.0323C35.4323 32.6989 34.9509 33.5271 34.1837 33.5271H1.72016C0.953015 33.5271 0.471571 32.6989 0.85117 32.0323L17.083 3.52612Z" fill="#fbe1de"/>
<path fill-rule="evenodd" clip-rule="evenodd" d="M18 15C17.4477 15 17 15.4477 17 16V22C17 22.5523 17.4477 23 18 23C18.5523 23 19 22.5523 19 22V16C19 15.4477 18.5523 15 18 15ZM17 25.3333C17 24.781 17.4477 24.3333 18 24.3333C18.5523 24.3333 19 24.781 19 25.3333C19 25.8856 18.5523 26.3333 18 26.3333C17.4477 26.3333 17 25.8856 17 25.3333Z" fill="#DC2C10"/>
</svg>
