<svg width="36" height="36" viewBox="0 0 36 36" fill="none" xmlns="http://www.w3.org/2000/svg">
<path fill-rule="evenodd" clip-rule="evenodd" d="M18 36C27.9411 36 36 27.9411 36 18C36 8.05887 27.9411 0 18 0C8.05887 0 0 8.05887 0 18C0 27.9411 8.05887 36 18 36Z" fill="#DFF6EC"/>
<path fill-rule="evenodd" clip-rule="evenodd" d="M23.6157 14.2835C24.0878 14.6958 24.1309 15.4069 23.712 15.8716L17.6275 22.6216C17.4233 22.8482 17.1349 22.9841 16.8275 22.9986C16.5201 23.0132 16.2198 22.9051 15.9944 22.6988L12.3646 19.3759C11.9024 18.9528 11.8761 18.241 12.306 17.786C12.7358 17.331 13.4589 17.3052 13.9211 17.7283L16.6943 20.2669L22.0023 14.3783C22.4212 13.9135 23.1435 13.8711 23.6157 14.2835Z" fill="#33C489"/>
</svg>
