<svg width="36" height="36" viewBox="0 0 36 36" fill="none" xmlns="http://www.w3.org/2000/svg">
<rect y="5" width="6" height="6" rx="1" fill="#4E3FCE" fill-opacity="0.1"/>
<rect x="30" y="30" width="6" height="6" rx="1" fill="#4E3FCE" fill-opacity="0.1"/>
<path d="M10 1C10 0.447715 10.4477 0 11 0H15C15.5523 0 16 0.447715 16 1V5C16 5.55228 15.5523 6 15 6H11C10.4477 6 10 5.55228 10 5V1Z" fill="#4E3FCE" fill-opacity="0.5"/>
<rect x="20" y="15" width="6" height="6" rx="1" fill="#4E3FCE" fill-opacity="0.5"/>
<rect x="20" y="25" width="6" height="6" rx="1" fill="#4E3FCE" fill-opacity="0.5"/>
<rect x="10" y="20" width="6" height="6" rx="1" fill="#4E3FCE" fill-opacity="0.5"/>
<rect y="15" width="6" height="6" rx="1" fill="#4E3FCE" fill-opacity="0.7"/>
<rect x="30" width="6" height="6" rx="1" fill="#4E3FCE" fill-opacity="0.1"/>
<rect x="30" y="20" width="6" height="6" rx="1" fill="#4E3FCE" fill-opacity="0.1"/>
<rect x="30" y="10" width="6" height="6" rx="1" fill="#4E3FCE" fill-opacity="0.7"/>
<rect x="10" y="10" width="6" height="6" rx="1" fill="#4E3FCE" fill-opacity="0.9"/>
<rect x="20" y="5" width="6" height="6" rx="1" fill="#4E3FCE" fill-opacity="0.9"/>
</svg>
