<svg width="24" height="24" viewBox="0 0 24 24" fill="none" xmlns="http://www.w3.org/2000/svg">
<path d="M8.49025 3.49976L1.49216 0.499756L0.492432 3.49976L2.49189 11.9998L21.4867 11.4998L23.4861 3.49976L21.9866 0.499756L15.4883 3.49976H8.49025Z" fill="#763D16"/>
<path d="M6.99048 11.9998H17.9875V18.9998H6.99048V11.9998Z" fill="#333333"/>
<rect x="7.99023" y="16.9998" width="5.99836" height="3" fill="#333333"/>
<path d="M1.58124 10.6642C1.72755 10.8311 1.76935 11.0607 1.70665 11.2485L0.222731 15.8398C0.18093 15.9651 0.18093 16.0903 0.222731 16.1946L1.51854 20.6398C1.62304 20.9738 1.95745 21.1616 2.27095 21.0572L6.7227 19.8259C6.9108 19.7633 7.1198 19.8259 7.287 19.9511L8.06031 20.5772C8.08121 20.5981 8.08121 20.5981 8.10211 20.5981L10.0249 21.9338C10.1294 21.9964 10.2548 22.0381 10.3802 22.0381H13.5989C13.7243 22.0381 13.8497 21.9964 13.9542 21.9338L15.877 20.5981C15.8979 20.5981 15.8979 20.5772 15.9188 20.5772L16.6921 19.9511C16.8384 19.8259 17.0474 19.7842 17.2564 19.8259L21.7081 21.0572C22.0426 21.1407 22.377 20.9529 22.4606 20.6398L23.7564 16.1946C23.7982 16.0694 23.7982 15.9442 23.7564 15.8398L22.2725 11.2485C22.2098 11.0398 22.2516 10.8311 22.3979 10.6642L23.9863 3.54766C24.0072 3.44331 24.0072 3.33897 23.9654 3.23462L23.0249 0.417226C22.9204 0.0833133 22.5442 -0.0836433 22.2098 0.0415742L15.2709 2.6294C15.2082 2.65027 15.1246 2.67114 15.0619 2.67114H8.91722C8.83362 2.67114 8.77092 2.65027 8.70822 2.6294L1.76935 0.0415742C1.43494 -0.0836433 1.05874 0.0833133 0.954238 0.417226L0.0346286 3.23462C-0.00717182 3.3181 -0.00717182 3.44331 0.0137284 3.54766L1.58124 10.6642ZM13.996 14.2537L14.5185 13.1685C14.5812 13.0433 14.7484 12.9807 14.8738 13.0433L16.1278 13.6068C16.3577 13.7111 16.3368 14.0451 16.086 14.1285L14.3304 14.6503C14.1005 14.7129 13.8915 14.4833 13.996 14.2537ZM13.8915 6.71984C13.7661 6.61549 13.7661 6.40679 13.9124 6.32331L21.8126 0.918096C21.9381 0.834618 22.1262 0.876357 22.1889 1.04331L23.1712 3.73549C23.1921 3.77723 23.1921 3.81897 23.1712 3.88157L21.5618 10.0798C21.52 10.2051 21.3946 10.2677 21.2692 10.2259L16.922 9.05723C16.8802 9.05723 16.8593 9.03636 16.8384 9.01549L13.8915 6.71984ZM10.0667 19.5338L10.213 18.3233C10.213 18.2607 10.2548 18.1981 10.3175 18.1564L10.6101 17.9477C10.6519 17.9268 10.6937 17.9059 10.7355 17.9059H13.2018C13.2436 17.9059 13.3063 17.9268 13.3272 17.9477L13.6198 18.1564C13.6825 18.1981 13.7034 18.2607 13.7243 18.3233L13.8497 19.5338C13.8706 19.6798 13.7452 19.8051 13.6198 19.8051H10.2757C10.1712 19.8051 10.0667 19.6798 10.0667 19.5338ZM7.85131 13.6068L9.10532 13.0433C9.25162 12.9807 9.39792 13.0433 9.46062 13.1685L9.98313 14.2537C10.0876 14.4624 9.87863 14.692 9.64873 14.6294L7.87221 14.1077C7.64231 14.0451 7.62141 13.7111 7.85131 13.6068ZM0.807936 3.86071C0.787036 3.81897 0.807936 3.75636 0.807936 3.71462L1.79025 1.04331C1.85295 0.897226 2.04105 0.834618 2.16645 0.918096L10.0667 6.32331C10.213 6.42766 10.213 6.61549 10.0876 6.71984L7.1407 9.01549C7.1198 9.03636 7.078 9.05723 7.0571 9.05723L2.70986 10.2259C2.58445 10.2677 2.45905 10.2051 2.41725 10.0798L0.807936 3.86071Z" fill="#F36D34"/>
</svg>
