<svg width="100" height="22" viewBox="0 0 100 22" fill="none" xmlns="http://www.w3.org/2000/svg">
<g clip-path="url(#clip0)">
<path d="M26.826 19V4.612H31.688C32.436 4.612 33.1327 4.68533 33.778 4.832C34.4233 4.97867 34.9807 5.22067 35.45 5.558C35.9193 5.88067 36.286 6.31333 36.55 6.856C36.8287 7.39867 36.968 8.07333 36.968 8.88C36.968 9.98 36.704 10.8673 36.176 11.542C35.6627 12.2167 34.9733 12.7007 34.108 12.994L37.54 19H34.68L31.578 13.368H29.378V19H26.826ZM29.378 11.344H31.424C32.4067 11.344 33.1547 11.1387 33.668 10.728C34.196 10.3173 34.46 9.70133 34.46 8.88C34.46 8.044 34.196 7.46467 33.668 7.142C33.1547 6.81933 32.4067 6.658 31.424 6.658H29.378V11.344ZM39.6255 19V8.198H42.1555V19H39.6255ZM40.9015 6.306C40.4469 6.306 40.0729 6.174 39.7795 5.91C39.4862 5.646 39.3395 5.30133 39.3395 4.876C39.3395 4.45067 39.4862 4.106 39.7795 3.842C40.0729 3.56333 40.4469 3.424 40.9015 3.424C41.3562 3.424 41.7302 3.56333 42.0235 3.842C42.3169 4.106 42.4635 4.45067 42.4635 4.876C42.4635 5.30133 42.3169 5.646 42.0235 5.91C41.7302 6.174 41.3562 6.306 40.9015 6.306ZM45.3833 19V8.198H47.4733L47.6493 9.672H47.7373C48.192 9.188 48.6833 8.77733 49.2113 8.44C49.754 8.10267 50.3627 7.934 51.0373 7.934C51.8293 7.934 52.46 8.10267 52.9293 8.44C53.4133 8.77733 53.78 9.254 54.0293 9.87C54.5427 9.31267 55.078 8.85067 55.6353 8.484C56.1927 8.11733 56.816 7.934 57.5053 7.934C58.6493 7.934 59.4927 8.308 60.0353 9.056C60.578 9.78933 60.8493 10.8453 60.8493 12.224V19H58.2973V12.554C58.2973 11.6593 58.158 11.0287 57.8793 10.662C57.6153 10.2953 57.2047 10.112 56.6473 10.112C55.9727 10.112 55.2173 10.5593 54.3813 11.454V19H51.8513V12.554C51.8513 11.6593 51.712 11.0287 51.4333 10.662C51.1693 10.2953 50.7513 10.112 50.1793 10.112C49.5047 10.112 48.7493 10.5593 47.9133 11.454V19H45.3833ZM69.1604 19.264C68.6617 19.264 68.1557 19.1467 67.6424 18.912C67.1437 18.6627 66.667 18.3107 66.2124 17.856H66.1464L65.9264 19H63.9244V3.468H66.4544V7.472L66.3884 9.276C66.843 8.88 67.3344 8.55733 67.8624 8.308C68.405 8.05867 68.955 7.934 69.5124 7.934C70.187 7.934 70.7884 8.066 71.3164 8.33C71.8444 8.57933 72.2917 8.946 72.6584 9.43C73.025 9.89933 73.3037 10.4713 73.4944 11.146C73.685 11.8207 73.7804 12.576 73.7804 13.412C73.7804 14.336 73.6484 15.1647 73.3844 15.898C73.135 16.6167 72.7977 17.2253 72.3724 17.724C71.947 18.2227 71.4557 18.604 70.8984 18.868C70.341 19.132 69.7617 19.264 69.1604 19.264ZM68.6324 17.174C69.351 17.174 69.9524 16.866 70.4364 16.25C70.9204 15.6193 71.1624 14.688 71.1624 13.456C71.1624 12.3707 70.979 11.5273 70.6124 10.926C70.2457 10.3247 69.6517 10.024 68.8304 10.024C68.0677 10.024 67.2757 10.4273 66.4544 11.234V16.272C66.8357 16.6093 67.2097 16.844 67.5764 16.976C67.9577 17.108 68.3097 17.174 68.6324 17.174ZM78.7848 19.264C77.8755 19.264 77.2375 18.9927 76.8708 18.45C76.5042 17.9073 76.3208 17.1667 76.3208 16.228V3.468H78.8508V16.36C78.8508 16.668 78.9095 16.888 79.0268 17.02C79.1442 17.1373 79.2688 17.196 79.4008 17.196C79.4595 17.196 79.5108 17.196 79.5548 17.196C79.6135 17.196 79.6942 17.1813 79.7968 17.152L80.1268 19.044C79.7895 19.1907 79.3422 19.264 78.7848 19.264ZM86.9135 19.264C86.1655 19.264 85.4688 19.1393 84.8235 18.89C84.1782 18.626 83.6135 18.252 83.1295 17.768C82.6455 17.284 82.2642 16.6973 81.9855 16.008C81.7215 15.304 81.5895 14.5047 81.5895 13.61C81.5895 12.73 81.7288 11.938 82.0075 11.234C82.2862 10.53 82.6528 9.936 83.1075 9.452C83.5768 8.968 84.1122 8.594 84.7135 8.33C85.3148 8.066 85.9308 7.934 86.5615 7.934C87.2948 7.934 87.9402 8.05867 88.4975 8.308C89.0548 8.55733 89.5168 8.90933 89.8835 9.364C90.2648 9.81867 90.5508 10.3613 90.7415 10.992C90.9322 11.6227 91.0275 12.312 91.0275 13.06C91.0275 13.3093 91.0128 13.544 90.9835 13.764C90.9688 13.984 90.9468 14.16 90.9175 14.292H84.0535C84.1708 15.26 84.5082 16.008 85.0655 16.536C85.6375 17.0493 86.3635 17.306 87.2435 17.306C87.7128 17.306 88.1455 17.24 88.5415 17.108C88.9522 16.9613 89.3555 16.7633 89.7515 16.514L90.6095 18.098C90.0962 18.4353 89.5242 18.714 88.8935 18.934C88.2628 19.154 87.6028 19.264 86.9135 19.264ZM84.0315 12.576H88.8275C88.8275 11.74 88.6442 11.0873 88.2775 10.618C87.9255 10.134 87.3755 9.892 86.6275 9.892C85.9822 9.892 85.4175 10.1193 84.9335 10.574C84.4495 11.0287 84.1488 11.696 84.0315 12.576Z" fill="black"/>
<path d="M1 21V1H21L1 21Z" fill="#6141ED"/>
<path opacity="0.484375" d="M1 11V1H11L1 11Z" fill="#7E66EC"/>
<path d="M11 1V11H1L11 1Z" fill="#7E66EC"/>
</g>
<defs>
<clipPath id="clip0">
<rect width="100" height="22" fill="white"/>
</clipPath>
</defs>
</svg>
